<svg width="100" height="35" viewBox="0 0 100 35" fill="none" xmlns="http://www.w3.org/2000/svg">
<path d="M13.3413 34.5212C11.4404 34.5212 9.6686 34.2182 8.02587 33.6121C6.40662 32.9827 4.99857 32.0968 3.80173 30.9545C2.60489 29.8122 1.66619 28.4718 0.985634 26.9332C0.328544 25.3946 0 23.7045 0 21.8629C0 20.0212 0.328544 18.3311 0.985634 16.7925C1.66619 15.254 2.60489 13.9135 3.80173 12.7712C5.02204 11.629 6.44182 10.7548 8.06107 10.1487C9.68033 9.51923 11.4521 9.20452 13.3765 9.20452C15.512 9.20452 17.4363 9.57751 19.1495 10.3235C20.886 11.0462 22.341 12.1185 23.5144 13.5405L19.8535 16.8974C19.0086 15.9417 18.0699 15.2306 17.0374 14.7644C16.0048 14.2749 14.8784 14.0301 13.6581 14.0301C12.5082 14.0301 11.4521 14.2166 10.49 14.5896C9.52779 14.9626 8.6947 15.4987 7.99067 16.1981C7.28665 16.8975 6.73516 17.725 6.33622 18.6808C5.96074 19.6366 5.773 20.6973 5.773 21.8629C5.773 23.0285 5.96074 24.0892 6.33622 25.045C6.73516 26.0007 7.28665 26.8283 7.99067 27.5277C8.6947 28.227 9.52779 28.7632 10.49 29.1362C11.4521 29.5092 12.5082 29.6957 13.6581 29.6957C14.8784 29.6957 16.0048 29.4626 17.0374 28.9963C18.0699 28.5068 19.0086 27.7725 19.8535 26.7934L23.5144 30.1503C22.341 31.5723 20.886 32.6563 19.1495 33.4023C17.4363 34.1483 15.5003 34.5212 13.3413 34.5212Z" fill="url(#paint0_linear_617_74)"/>
<path d="M27.3654 34.1016V9.62414H33.068V34.1016H27.3654Z" fill="url(#paint1_linear_617_74)"/>
<path d="M38.9157 34.1016V9.62414H44.6183V34.1016H38.9157Z" fill="url(#paint2_linear_617_74)"/>
<path d="M55.5703 34.1016V14.2399H47.6852V9.62414H69.158V14.2399H61.2729V34.1016H55.5703Z" fill="url(#paint3_linear_617_74)"/>
<path d="M72.2263 34.1016V9.62414H76.9432L87.4332 26.8983H84.9339L95.2478 9.62414H99.9296L100 34.1016H94.6494L94.6142 17.7716H95.5999L87.3628 31.514H84.7931L76.38 17.7716H77.5768V34.1016H72.2263Z" fill="url(#paint4_linear_617_74)"/>
<path d="M26.3819 8.63515H46.0132C45.1821 3.99877 41.1037 0.478699 36.1975 0.478699C31.2914 0.478699 27.213 3.99877 26.3819 8.63515Z" fill="url(#paint5_linear_617_74)"/>
<defs>
<linearGradient id="paint0_linear_617_74" x1="25.3666" y1="2.8323" x2="46.6689" y2="8.95928" gradientUnits="userSpaceOnUse">
<stop offset="1" stop-color="#333333" stop-opacity="0.85"/>
</linearGradient>
<linearGradient id="paint1_linear_617_74" x1="25.3666" y1="2.8323" x2="46.6689" y2="8.95928" gradientUnits="userSpaceOnUse">
<stop offset="1" stop-color="#333333" stop-opacity="0.85"/>
</linearGradient>
<linearGradient id="paint2_linear_617_74" x1="25.3666" y1="2.8323" x2="46.6689" y2="8.95928" gradientUnits="userSpaceOnUse">
<stop offset="1" stop-color="#333333" stop-opacity="0.85"/>
</linearGradient>
<linearGradient id="paint3_linear_617_74" x1="25.3666" y1="2.8323" x2="46.6689" y2="8.95928" gradientUnits="userSpaceOnUse">
<stop offset="1" stop-color="#333333" stop-opacity="0.85"/>
</linearGradient>
<linearGradient id="paint4_linear_617_74" x1="25.3666" y1="2.8323" x2="46.6689" y2="8.95928" gradientUnits="userSpaceOnUse">
<stop offset="1" stop-color="#333333" stop-opacity="0.85"/>
</linearGradient>
<linearGradient id="paint5_linear_617_74" x1="25.3666" y1="2.8323" x2="46.6689" y2="8.95928" gradientUnits="userSpaceOnUse">
<stop offset="1" stop-color="#F0997A"/>
</linearGradient>
</defs>
</svg>
